<?xml version="1.0" encoding="utf-8"?>
<!-- Generator: Adobe Illustrator 18.0.0, SVG Export Plug-In . SVG Version: 6.00 Build 0)  -->
<!DOCTYPE svg PUBLIC "-//W3C//DTD SVG 1.1//EN" "http://www.w3.org/Graphics/SVG/1.1/DTD/svg11.dtd">
<svg version="1.1" id="Icon_Set" xmlns="http://www.w3.org/2000/svg" xmlns:xlink="http://www.w3.org/1999/xlink" x="0px" y="0px"
	 viewBox="0 0 256 256" style="enable-background:new 0 0 256 256;" xml:space="preserve">
<style type="text/css">
	.st0{fill:#4C4372;}
	.st1{fill:#F1C48B;}
	.st2{fill:#FFFFFF;}
	.st3{fill:#A3D0F1;}
	.st4{fill:#7BACF1;}
	.st5{fill:#D4E7F8;}
	.st6{fill:#FD919E;}
	.st7{fill:#D3E6F7;}
	.st8{fill:#E8677D;}
	.st9{fill:#D3E6F8;}
</style>
<g>
	<g>
		<circle class="st1" cx="128" cy="128" r="104.245"/>
	</g>
	<g>
		<rect x="91.322" y="56" class="st2" width="73.355" height="33.534"/>
	</g>
	<g>
		<path class="st3" d="M202.428,172.839H53.571c-5.639,0-10.21-4.571-10.21-10.21V99.744c0-5.639,4.571-10.21,10.21-10.21h148.857
			c5.639,0,10.21,4.571,10.21,10.21v62.885C212.638,168.268,208.067,172.839,202.428,172.839z"/>
	</g>
	<g>
		<path class="st4" d="M202.428,89.534h-20.26c5.639,0,10.21,4.571,10.21,10.21v62.885c0,5.639-4.571,10.21-10.21,10.21h20.26
			c5.639,0,10.21-4.571,10.21-10.21V99.744C212.638,94.105,208.067,89.534,202.428,89.534z"/>
	</g>
	<g>
		<path class="st0" d="M202.429,175.839H53.571c-7.284,0-13.21-5.926-13.21-13.21V99.743c0-7.284,5.926-13.21,13.21-13.21h148.857
			c7.284,0,13.21,5.926,13.21,13.21v62.886C215.639,169.913,209.713,175.839,202.429,175.839z M53.571,92.533
			c-3.976,0-7.21,3.234-7.21,7.21v62.886c0,3.976,3.234,7.21,7.21,7.21h148.857c3.976,0,7.21-3.234,7.21-7.21V99.743
			c0-3.976-3.234-7.21-7.21-7.21H53.571z"/>
	</g>
	<g>
		<path class="st0" d="M212.639,148.508H43.361c-1.657,0-3-1.343-3-3s1.343-3,3-3h169.277c1.657,0,3,1.343,3,3
			S214.296,148.508,212.639,148.508z"/>
	</g>
	<g>
		<path class="st0" d="M199.783,110.782H183.54c-1.657,0-3-1.343-3-3s1.343-3,3-3h16.243c1.657,0,3,1.343,3,3
			S201.44,110.782,199.783,110.782z"/>
	</g>
	<g>
		<rect x="91.322" y="145.508" class="st2" width="73.355" height="54.492"/>
	</g>
	<g>
		<rect x="150.356" y="56" class="st5" width="14.322" height="33.534"/>
	</g>
	<g>
		<rect x="150.356" y="145.508" class="st5" width="14.322" height="54.492"/>
	</g>
	<g>
		<circle class="st6" cx="61.981" cy="107.783" r="6.986"/>
	</g>
	<g>
		<path class="st0" d="M164.678,92.533H91.322c-1.657,0-3-1.343-3-3V56c0-1.657,1.343-3,3-3h73.355c1.657,0,3,1.343,3,3v33.533
			C167.678,91.19,166.335,92.533,164.678,92.533z M94.322,86.533h67.355V59H94.322V86.533z"/>
	</g>
	<g>
		<path class="st0" d="M61.98,117.769c-5.507,0-9.986-4.479-9.986-9.986c0-5.506,4.479-9.985,9.986-9.985s9.986,4.479,9.986,9.985
			C71.967,113.289,67.487,117.769,61.98,117.769z M61.98,103.797c-2.198,0-3.986,1.788-3.986,3.985c0,2.198,1.788,3.986,3.986,3.986
			s3.986-1.788,3.986-3.986C65.967,105.585,64.179,103.797,61.98,103.797z"/>
	</g>
	<g>
		<path class="st0" d="M164.678,203H91.322c-1.657,0-3-1.343-3-3v-54.492c0-1.657,1.343-3,3-3h73.355c1.657,0,3,1.343,3,3V200
			C167.678,201.657,166.335,203,164.678,203z M94.322,197h67.355v-48.492H94.322V197z"/>
	</g>
	<g>
		<path class="st0" d="M150.355,161.956h-44.711c-1.657,0-3-1.343-3-3s1.343-3,3-3h44.711c1.657,0,3,1.343,3,3
			S152.013,161.956,150.355,161.956z"/>
	</g>
	<g>
		<path class="st0" d="M150.355,175.754h-44.711c-1.657,0-3-1.343-3-3s1.343-3,3-3h44.711c1.657,0,3,1.343,3,3
			S152.013,175.754,150.355,175.754z"/>
	</g>
	<g>
		<path class="st0" d="M150.355,189.552h-44.711c-1.657,0-3-1.343-3-3s1.343-3,3-3h44.711c1.657,0,3,1.343,3,3
			S152.013,189.552,150.355,189.552z"/>
	</g>
</g>
</svg>
