<?xml version="1.0" standalone="no"?>
<!DOCTYPE svg PUBLIC "-//W3C//DTD SVG 20010904//EN"
 "http://www.w3.org/TR/2001/REC-SVG-20010904/DTD/svg10.dtd">
<svg version="1.0" xmlns="http://www.w3.org/2000/svg"
 width="50" height="50" viewBox="0 0 187.000000 191.000000"
 preserveAspectRatio="xMidYMid meet">

<g transform="translate(0.000000,191.000000) scale(0.100000,-0.100000)"
fill="#000000" stroke="none">
<path d="M962 1819 c11 -23 16 -25 65 -21 l54 5 -3 -109 -3 -109 -135 0 -135
0 0 105 0 105 53 3 c66 4 69 22 3 22 -32 0 -56 -6 -70 -17 -20 -17 -22 -26
-19 -128 l3 -110 68 -3 c64 -3 67 -4 56 -23 -9 -17 -20 -20 -62 -19 -69 2 -75
1 -57 -10 15 -9 337 -6 347 3 2 3 -25 8 -61 12 -45 5 -66 12 -66 21 0 9 18 14
58 16 l57 3 3 109 c3 135 -3 146 -88 146 -31 0 -61 5 -68 12 -9 9 -9 6 0 -13z"/>
<path d="M645 1800 c-4 -14 -15 -20 -36 -20 -30 0 -30 0 -27 -52 l3 -53 70 0
70 0 3 58 c3 67 -8 87 -49 87 -19 0 -30 -6 -34 -20z m70 -20 c0 -18 -43 -26
-57 -12 -16 16 2 33 30 30 16 -2 27 -9 27 -18z m-27 -40 c15 0 22 -6 22 -20 0
-29 -60 -28 -78 1 -17 27 -27 18 -12 -10 9 -18 8 -21 -10 -21 -16 0 -20 6 -20
31 0 31 1 31 38 25 20 -3 47 -6 60 -6z"/>
<path d="M1179 1773 c-2 -21 -3 -53 -1 -71 3 -31 5 -33 39 -30 35 3 35 4 37
52 2 45 -1 50 -29 67 -41 25 -42 25 -46 -18z m61 -38 c0 -9 -9 -15 -25 -15
-16 0 -25 6 -25 15 0 9 9 15 25 15 16 0 25 -6 25 -15z"/>
<path d="M905 1758 c-2 -7 -6 -26 -8 -43 -4 -28 -5 -29 -12 -7 -5 15 -14 22
-27 20 -16 -2 -21 -13 -24 -55 l-4 -53 110 0 110 0 0 61 c0 57 -1 60 -22 57
-15 -2 -24 -11 -26 -25 -2 -13 -10 -23 -18 -23 -9 0 -14 -10 -14 -27 0 -22 -2
-25 -10 -13 -5 8 -10 39 -10 68 0 46 -2 52 -20 52 -11 0 -23 -6 -25 -12z m35
-58 c0 -33 -4 -60 -9 -60 -10 0 -24 97 -16 110 15 25 25 5 25 -50z m-70 -10
c0 -16 -4 -30 -10 -30 -5 0 -10 14 -10 30 0 17 5 30 10 30 6 0 10 -13 10 -30z
m170 -10 c0 -22 -4 -40 -10 -40 -5 0 -10 18 -10 40 0 22 5 40 10 40 6 0 10
-18 10 -40z m-43 -32 c-3 -7 -5 -2 -5 12 0 14 2 19 5 13 2 -7 2 -19 0 -25z"/>
<path d="M499 1748 c-7 -25 -5 -38 7 -38 9 0 12 5 9 10 -3 6 -1 10 5 10 6 0 8
5 5 10 -5 9 -24 14 -26 8z"/>
<path d="M1358 1713 c12 -2 30 -2 40 0 9 3 -1 5 -23 4 -22 0 -30 -2 -17 -4z"/>
<path d="M1410 1685 c-15 -18 -51 -20 -68 -3 -9 9 -12 9 -12 -3 0 -9 11 -21
25 -27 21 -10 30 -9 50 4 14 9 25 23 25 30 0 18 -5 18 -20 -1z"/>
<path d="M390 1665 c0 -8 -12 -21 -27 -29 -33 -18 -25 -21 12 -4 14 6 25 17
25 25 0 7 7 13 15 13 8 0 15 -7 15 -16 0 -8 6 -22 14 -29 11 -12 17 -11 36 2
24 17 48 4 34 -18 -21 -34 -12 -64 18 -61 3 1 9 -5 12 -13 3 -9 -1 -15 -10
-15 -19 0 -35 -41 -22 -57 20 -25 -4 -35 -28 -12 -16 15 -24 18 -24 9 0 -7 -3
-10 -7 -7 -10 11 -32 -13 -26 -29 3 -8 -1 -14 -11 -14 -9 0 -16 8 -16 19 0 26
-39 35 -62 14 -10 -8 -15 -20 -11 -26 4 -6 11 -3 18 7 14 19 45 12 45 -10 0
-22 40 -16 60 8 15 19 20 20 34 9 27 -22 65 0 59 34 -4 16 0 30 10 38 19 16
12 87 -10 87 -10 0 -14 7 -10 20 7 26 -15 42 -46 35 -19 -5 -30 -1 -44 14 -20
24 -53 28 -53 6z"/>
<path d="M1472 1627 l-31 -24 26 -21 c34 -27 41 -27 70 0 l23 21 -26 24 c-14
12 -26 23 -28 23 -1 0 -16 -11 -34 -23z m45 -8 c14 -14 6 -39 -12 -39 -18 0
-28 17 -21 35 6 18 18 19 33 4z"/>
<path d="M600 1610 c-11 -11 -20 -31 -20 -45 0 -57 83 -88 114 -43 18 25 21
68 6 68 -5 0 -10 -11 -10 -25 0 -22 -24 -45 -49 -45 -14 0 -41 29 -41 45 0 27
31 46 64 39 27 -6 29 -5 17 10 -18 22 -57 20 -81 -4z"/>
<path d="M1178 1567 c-3 -34 -3 -77 -1 -94 l5 -33 67 -1 c36 0 87 -2 114 -4
44 -2 47 -1 47 21 0 24 -1 24 -105 24 l-105 0 0 28 c0 17 10 38 25 52 l25 23
25 -23 c20 -18 28 -21 37 -12 9 9 7 12 -10 12 -11 0 -25 8 -31 17 -8 15 -13
15 -36 5 -35 -16 -35 -16 -35 12 0 53 -18 32 -22 -27z"/>
<path d="M1335 1579 c-5 -7 -4 -10 3 -5 6 3 18 -4 26 -16 9 -12 18 -19 21 -17
3 3 -6 16 -19 28 -18 17 -26 19 -31 10z"/>
<path d="M1498 1514 c-50 -27 -63 -85 -29 -132 10 -15 21 -47 24 -72 12 -97
87 -100 97 -4 3 27 13 60 23 74 36 52 13 116 -51 141 -29 11 -31 11 -64 -7z
m95 -35 c26 -31 22 -76 -9 -104 -15 -14 -33 -25 -41 -25 -27 0 -70 39 -76 67
-5 29 14 78 35 87 24 10 73 -4 91 -25z m-28 -149 c4 -6 -7 -10 -27 -9 -31 1
-32 1 -8 9 14 4 26 8 27 9 1 1 5 -3 8 -9z m0 -30 c-3 -5 -15 -10 -26 -10 -10
0 -19 5 -19 10 0 6 12 10 26 10 14 0 23 -4 19 -10z m-5 -30 c0 -5 -9 -10 -20
-10 -11 0 -20 5 -20 10 0 6 9 10 20 10 11 0 20 -4 20 -10z"/>
<path d="M595 1470 c3 -5 8 -10 11 -10 2 0 4 5 4 10 0 6 -5 10 -11 10 -5 0 -7
-4 -4 -10z"/>
<path d="M630 1439 c0 -21 5 -39 10 -39 9 0 15 21 11 43 0 4 4 7 9 7 18 0 10
18 -10 23 -17 4 -20 0 -20 -34z"/>
<path d="M192 1457 c-35 -16 -27 -60 13 -67 41 -7 75 -31 75 -53 0 -19 26 -34
38 -22 4 4 1 10 -5 12 -20 7 -15 23 8 23 11 0 17 4 14 10 -4 6 -15 10 -25 8
-19 -3 -70 37 -70 56 0 6 -6 18 -13 27 -9 12 -17 14 -35 6z m18 -32 c0 -8 -4
-15 -9 -15 -13 0 -22 16 -14 24 11 11 23 6 23 -9z"/>
<path d="M867 1449 c-80 -12 -174 -61 -236 -122 -58 -58 -116 -165 -127 -232
-5 -39 -10 -45 -30 -45 -23 0 -24 3 -24 63 0 36 -5 68 -12 75 -17 17 -48 15
-48 -3 0 -8 7 -15 15 -15 19 0 20 -50 2 -69 -9 -11 -9 -14 1 -18 6 -3 12 -11
12 -19 0 -10 -12 -14 -40 -14 l-40 0 0 59 c0 50 3 59 20 64 13 3 18 11 14 20
-3 10 3 20 16 27 17 9 26 8 46 -5 13 -8 24 -22 24 -30 0 -8 7 -15 15 -15 18 0
19 29 1 52 -30 40 -108 39 -121 -2 -3 -10 -12 -21 -20 -24 -11 -4 -15 -23 -15
-75 0 -52 -4 -70 -15 -75 -10 -3 -15 -19 -15 -45 l0 -40 100 0 c106 0 120 -3
120 -26 0 -12 -36 -15 -206 -17 l-207 -3 -4 -145 c-3 -80 -9 -148 -14 -151 -5
-3 -1 -13 10 -23 17 -16 44 -18 233 -19 l213 -2 2 120 c0 66 2 125 2 130 1 6
14 -17 29 -50 44 -91 120 -168 211 -213 74 -36 80 -37 185 -37 l108 0 157
-162 c114 -119 163 -163 180 -163 68 0 139 74 148 155 l6 45 -99 106 c-173
185 -165 175 -147 203 66 101 87 180 81 301 -6 105 -33 180 -96 263 -102 134
-269 201 -435 176z m188 -53 c66 -17 119 -51 178 -115 178 -191 114 -505 -128
-626 -55 -27 -69 -30 -160 -30 -88 0 -107 3 -158 27 -67 32 -161 117 -189 172
-99 194 -37 428 141 534 86 50 213 66 316 38z m-665 -382 c0 -2 -18 -4 -41 -4
-22 0 -38 4 -35 8 5 8 76 4 76 -4z m95 6 c4 -6 -10 -10 -37 -9 -40 1 -41 2
-13 9 43 11 43 11 50 0z m-95 -30 c0 -5 -18 -10 -40 -10 -22 0 -40 5 -40 10 0
6 18 10 40 10 22 0 40 -4 40 -10z m100 0 c0 -5 -18 -10 -40 -10 -22 0 -40 5
-40 10 0 6 18 10 40 10 22 0 40 -4 40 -10z m10 -245 l0 -134 -190 -1 -190 0 0
135 0 135 190 0 190 0 0 -135z m857 -157 c61 -62 125 -130 144 -152 l33 -38
-58 -56 -57 -55 -95 94 c-53 52 -118 120 -146 152 l-51 58 54 55 c29 30 56 54
60 54 3 0 56 -51 116 -112z"/>
<path d="M858 1306 c-98 -26 -181 -113 -208 -216 -46 -175 91 -363 277 -378
215 -17 380 224 293 426 -32 75 -111 144 -187 165 -69 20 -110 20 -175 3z
m292 -141 c0 -8 -6 -15 -13 -15 -7 0 -57 -45 -110 -101 -53 -55 -93 -97 -87
-94 5 3 10 0 10 -7 0 -16 -16 -19 -130 -21 l-85 -2 -3 128 -3 127 211 0 c180
0 210 -2 210 -15z m-37 -50 c-3 -9 -8 -14 -10 -11 -3 3 -2 9 2 15 9 16 15 13
8 -4z m-63 -65 c0 -5 -5 -10 -11 -10 -5 0 -7 5 -4 10 3 6 8 10 11 10 2 0 4 -4
4 -10z m100 -184 c0 -33 -17 -36 -217 -36 -143 0 -174 3 -187 16 -9 8 -16 22
-16 30 0 12 35 14 210 14 l210 0 0 -24z m-180 -76 c0 -13 10 -25 28 -32 27
-12 27 -12 -16 -16 -23 -2 -59 -2 -80 0 l-37 4 28 12 c17 7 27 19 27 32 0 15
7 20 25 20 18 0 25 -5 25 -20z"/>
<path d="M930 1046 c0 -9 7 -16 16 -16 17 0 14 22 -4 28 -7 2 -12 -3 -12 -12z"/>
<path d="M935 860 c3 -5 8 -10 11 -10 2 0 4 5 4 10 0 6 -5 10 -11 10 -5 0 -7
-4 -4 -10z"/>
<path d="M400 849 c0 -5 10 -9 22 -9 12 0 18 3 14 7 -10 11 -36 12 -36 2z"/>
<path d="M233 818 c9 -7 18 -29 20 -48 l4 -35 1 38 c1 20 5 37 8 37 18 0 44
-23 44 -40 0 -37 -11 -50 -36 -44 -19 5 -24 2 -24 -12 0 -15 2 -16 9 -5 10 16
31 6 31 -15 0 -8 4 -14 9 -14 12 0 22 30 14 42 -3 7 -1 8 5 4 8 -5 12 3 12 26
0 41 -40 78 -83 78 -27 0 -29 -2 -14 -12z"/>
<path d="M170 762 c0 -5 7 -9 15 -9 8 0 12 4 9 9 -3 4 -9 8 -15 8 -5 0 -9 -4
-9 -8z"/>
<path d="M413 653 c15 -2 37 -2 50 0 12 2 0 4 -28 4 -27 0 -38 -2 -22 -4z"/>
<path d="M530 1385 c-20 -21 -22 -27 -11 -37 9 -8 11 -9 7 -1 -3 6 8 23 25 37
17 14 25 26 17 25 -7 0 -24 -11 -38 -24z"/>
<path d="M580 1375 c-8 -9 -8 -15 -2 -15 12 0 26 19 19 26 -2 2 -10 -2 -17
-11z"/>
<path d="M109 1309 c-49 -50 -49 -50 -49 -118 l0 -68 96 -6 c53 -4 100 -4 105
-1 12 7 12 147 0 160 -5 5 -11 23 -13 39 -2 25 -7 30 -30 30 -14 0 -30 3 -34
8 -14 14 -27 7 -75 -44z m137 -105 c-2 -45 -4 -49 -29 -52 -25 -3 -27 0 -27
31 0 34 -20 64 -33 50 -4 -3 -7 -24 -7 -45 0 -36 -2 -38 -30 -38 -30 0 -30 0
-30 57 0 53 3 60 38 96 l37 38 42 -44 c38 -41 41 -48 39 -93z"/>
<path d="M1676 1329 c-14 -17 -26 -38 -26 -48 0 -21 27 -78 41 -87 6 -3 4 8
-5 24 -33 64 -9 122 49 122 57 0 85 -67 49 -118 -20 -29 -8 -45 12 -17 70 96
-44 214 -120 124z"/>
<path d="M1362 1338 c-29 -29 -7 -78 34 -78 25 0 54 24 54 45 0 36 -62 59 -88
33z m62 -21 c8 -12 7 -21 -6 -33 -22 -22 -48 -11 -48 20 0 37 34 45 54 13z"/>
<path d="M355 1315 c-27 -26 -33 -65 -11 -65 9 0 12 7 9 19 -6 25 32 51 74 51
35 0 73 -29 73 -55 0 -8 5 -15 10 -15 19 0 10 41 -15 65 -18 19 -35 25 -70 25
-35 0 -52 -6 -70 -25z"/>
<path d="M408 1283 c12 -2 30 -2 40 0 9 3 -1 5 -23 4 -22 0 -30 -2 -17 -4z"/>
<path d="M1600 1242 c0 -4 5 -13 12 -20 9 -9 8 -12 -6 -12 -9 0 -14 -4 -11
-10 14 -22 35 -10 35 20 0 20 -5 30 -15 30 -8 0 -15 -4 -15 -8z"/>
<path d="M1440 1178 c0 -19 5 -22 53 -32 22 -5 27 -3 27 14 0 11 5 20 12 20 6
0 8 3 5 6 -4 4 -27 8 -52 9 -38 1 -45 -1 -45 -17z m60 -8 c0 -13 -20 -13 -40
0 -12 8 -9 10 13 10 15 0 27 -4 27 -10z"/>
<path d="M1733 1162 c-65 -3 -73 -5 -73 -22 0 -12 7 -20 17 -20 9 0 14 -3 11
-6 -4 -3 -59 -7 -125 -9 l-118 -3 -3 -113 c-3 -115 3 -136 37 -124 8 3 34 3
58 -1 33 -5 43 -11 43 -25 0 -17 -8 -19 -60 -19 -94 0 -130 -48 -75 -100 24
-22 32 -23 186 -25 l161 -3 34 30 c19 17 34 36 34 43 0 24 -51 55 -91 55 -47
0 -69 8 -69 26 0 10 15 14 54 14 90 0 87 -5 85 139 -1 162 -4 167 -106 163z
m25 -49 c-10 -2 -26 -2 -35 0 -10 3 -2 5 17 5 19 0 27 -2 18 -5z m52 -117 c0
-81 -2 -94 -17 -97 -10 -2 -88 -4 -173 -4 l-155 0 -3 98 -3 97 176 0 175 0 0
-94z m-150 -161 c0 -31 -3 -35 -25 -35 -21 0 -25 5 -25 28 0 33 7 42 32 42 14
0 18 -8 18 -35z m164 -51 c9 -3 16 -12 16 -19 0 -26 -377 -37 -399 -12 -25 30
9 37 190 37 98 0 184 -3 193 -6z"/>
<path d="M1710 985 c0 -30 5 -55 10 -55 6 0 10 16 10 35 0 26 4 35 18 36 14 0
14 2 -3 9 l-20 9 20 0 c17 1 17 3 5 11 -32 21 -40 11 -40 -45z"/>
<path d="M1560 990 c0 -22 5 -40 10 -40 6 0 10 18 10 40 0 22 -4 40 -10 40 -5
0 -10 -18 -10 -40z"/>
<path d="M375 1140 c4 -6 11 -8 16 -5 14 9 11 15 -7 15 -8 0 -12 -5 -9 -10z"/>
<path d="M198 1093 c-2 -5 -1 -24 3 -43 5 -30 7 -31 8 -8 0 14 4 33 7 42 6 16
-11 23 -18 9z"/>
<path d="M1594 656 c-17 -14 -15 -14 29 -10 43 5 50 3 76 -25 36 -39 42 -101
9 -101 -18 0 -20 5 -16 45 2 26 -1 45 -7 45 -5 0 -10 -22 -10 -50 0 -42 3 -50
19 -50 15 0 16 -3 7 -14 -18 -21 -61 -29 -79 -14 -12 10 -14 10 -8 1 13 -22
-14 -14 -39 12 -17 16 -25 35 -25 60 0 19 -4 35 -10 35 -16 0 -12 -58 6 -86
21 -32 64 -54 104 -54 63 0 115 88 91 153 -21 53 -105 84 -147 53z"/>
<path d="M1375 651 c-7 -13 -9 -12 29 -15 16 -1 31 -7 34 -14 7 -21 42 -14 42
8 0 16 -7 20 -34 20 -19 0 -41 3 -49 6 -8 3 -18 1 -22 -5z"/>
<path d="M582 641 c-24 -15 -10 -46 23 -49 37 -5 54 -27 55 -74 l0 -38 -129 0
c-133 0 -164 9 -126 37 18 12 18 13 -2 13 -50 0 -53 -6 -53 -115 0 -122 -9
-115 148 -115 l102 0 0 -25 c0 -16 -6 -25 -15 -25 -13 0 -15 -11 -13 -57 l3
-58 73 -3 72 -3 0 61 c0 33 -4 60 -10 60 -5 0 -10 11 -10 25 0 18 5 25 20 25
19 0 20 7 20 110 l0 111 -30 6 c-16 3 -30 9 -30 14 0 12 -70 109 -78 109 -4 0
-13 -4 -20 -9z m28 -27 c0 -9 -5 -14 -12 -12 -18 6 -21 28 -4 28 9 0 16 -7 16
-16z m90 -119 c0 -8 -2 -15 -4 -15 -2 0 -6 7 -10 15 -3 8 -1 15 4 15 6 0 10
-7 10 -15z m-17 -43 l47 -2 0 -60 0 -60 -77 -1 c-43 -1 -125 -1 -183 -1 l-105
1 -3 52 c-2 28 -1 57 2 64 4 12 109 14 319 7z m-73 -241 c0 -10 7 -25 16 -32
14 -11 20 -9 45 19 16 18 31 32 33 32 3 0 5 -20 4 -45 l-1 -45 -57 0 c-63 0
-70 6 -70 61 0 19 5 29 15 29 8 0 15 -8 15 -19z"/>
<path d="M397 434 c-13 -13 -7 -24 14 -24 11 0 19 5 17 12 -5 14 -22 21 -31
12z"/>
<path d="M460 426 c0 -10 9 -16 21 -16 24 0 21 23 -4 28 -10 2 -17 -3 -17 -12z"/>
<path d="M527 434 c-14 -14 -6 -24 19 -24 16 0 24 5 22 13 -5 14 -31 21 -41
11z"/>
<path d="M597 433 c-13 -12 -7 -23 13 -23 11 0 20 7 20 15 0 15 -21 21 -33 8z"/>
<path d="M660 425 c0 -8 9 -15 20 -15 11 0 20 7 20 15 0 8 -9 15 -20 15 -11 0
-20 -7 -20 -15z"/>
<path d="M390 365 c0 -8 9 -15 20 -15 11 0 20 7 20 15 0 8 -9 15 -20 15 -11 0
-20 -7 -20 -15z"/>
<path d="M460 365 c0 -8 9 -15 20 -15 11 0 20 7 20 15 0 8 -9 15 -20 15 -11 0
-20 -7 -20 -15z"/>
<path d="M520 364 c0 -10 7 -14 22 -12 32 5 35 28 4 28 -17 0 -26 -5 -26 -16z"/>
<path d="M590 365 c0 -8 9 -15 20 -15 11 0 20 7 20 15 0 8 -9 15 -20 15 -11 0
-20 -7 -20 -15z"/>
<path d="M660 365 c0 -8 9 -15 20 -15 11 0 20 7 20 15 0 8 -9 15 -20 15 -11 0
-20 -7 -20 -15z"/>
<path d="M255 510 c-3 -5 -1 -10 4 -10 6 0 11 5 11 10 0 6 -2 10 -4 10 -3 0
-8 -4 -11 -10z"/>
<path d="M780 300 l0 -180 38 0 c20 0 72 -2 115 -3 71 -2 77 -1 77 18 0 19 -5
20 -100 17 l-100 -3 -2 98 c-1 54 -1 128 -1 166 2 52 -1 67 -13 67 -12 0 -14
-30 -14 -180z"/>
<path d="M994 465 c10 -8 23 -12 27 -9 5 2 2 -8 -6 -23 -22 -41 -18 -53 4 -17
11 18 24 35 30 39 20 12 1 25 -37 25 -34 -1 -36 -2 -18 -15z"/>
<path d="M246 441 c-3 -5 3 -7 14 -4 27 7 53 -16 46 -40 -3 -14 -2 -17 5 -10
6 6 9 21 7 34 -2 19 -10 25 -35 27 -17 2 -34 -1 -37 -7z"/>
<path d="M848 428 c-10 -26 1 -48 19 -41 11 4 14 2 9 -5 -4 -7 -2 -12 3 -12 6
0 11 9 11 20 0 11 -6 20 -14 20 -8 0 -16 8 -18 18 -3 16 -4 16 -10 0z"/>
<path d="M906 425 c10 -8 26 -14 34 -15 8 0 2 7 -14 15 -36 19 -45 19 -20 0z"/>
<path d="M1120 399 c0 -11 5 -17 10 -14 6 3 10 13 10 21 0 8 -4 14 -10 14 -5
0 -10 -9 -10 -21z"/>
<path d="M919 341 c-22 -28 -49 -52 -58 -54 -14 -4 -14 -5 1 -6 9 0 34 20 54
45 21 25 47 50 59 54 16 7 16 9 3 9 -9 1 -36 -21 -59 -48z"/>
<path d="M1102 321 c-8 -5 -12 -17 -10 -27 2 -15 13 -20 49 -22 l46 -3 -5 31
c-4 26 -8 30 -36 30 -17 0 -37 -4 -44 -9z"/>
<path d="M1210 310 c0 -5 5 -10 11 -10 5 0 7 5 4 10 -3 6 -8 10 -11 10 -2 0
-4 -4 -4 -10z"/>
<path d="M1268 263 c7 -3 16 -2 19 1 4 3 -2 6 -13 5 -11 0 -14 -3 -6 -6z"/>
<path d="M454 245 c-8 -19 2 -45 17 -45 8 0 7 5 -2 16 -11 14 -10 18 6 30 17
13 17 14 2 14 -10 0 -20 -7 -23 -15z"/>
<path d="M509 246 c6 -7 9 -21 5 -30 -7 -17 11 -22 21 -6 10 16 -5 50 -22 50
-12 0 -13 -3 -4 -14z"/>
<path d="M915 240 c3 -5 8 -10 11 -10 2 0 4 5 4 10 0 6 -5 10 -11 10 -5 0 -7
-4 -4 -10z"/>
<path d="M840 225 c0 -8 7 -15 15 -15 8 0 15 7 15 15 0 8 -7 15 -15 15 -8 0
-15 -7 -15 -15z"/>
<path d="M1087 220 c-3 -11 -13 -20 -24 -20 -10 0 -25 -5 -33 -10 -11 -8 -3
-10 30 -7 25 2 45 8 45 13 0 17 16 34 26 29 5 -4 9 -1 9 4 0 20 -47 12 -53 -9z"/>
<path d="M1180 225 c0 -12 15 -15 81 -15 60 0 80 3 77 13 -3 8 -31 13 -81 15
-64 2 -77 0 -77 -13z"/>
<path d="M1140 189 c0 -5 5 -7 10 -4 6 3 10 8 10 11 0 2 -4 4 -10 4 -5 0 -10
-5 -10 -11z"/>
<path d="M863 183 c15 -2 39 -2 55 0 15 2 2 4 -28 4 -30 0 -43 -2 -27 -4z"/>
<path d="M960 186 c0 -2 9 -6 20 -9 11 -3 20 -1 20 4 0 5 -9 9 -20 9 -11 0
-20 -2 -20 -4z"/>
<path d="M1096 142 c-11 -19 21 -33 59 -26 28 5 33 9 24 20 -7 9 -18 10 -34 4
-14 -5 -26 -5 -33 2 -6 6 -12 6 -16 0z"/>
<path d="M1238 143 c7 -3 16 -2 19 1 4 3 -2 6 -13 5 -11 0 -14 -3 -6 -6z"/>
<path d="M870 80 c0 -18 7 -20 75 -20 43 0 75 4 75 10 0 6 -7 10 -15 10 -8 0
-15 5 -15 10 0 6 -27 10 -60 10 -53 0 -60 -2 -60 -20z"/>
</g>
</svg>
