<?xml version="1.0" encoding="utf-8"?>
<!-- Generator: Adobe Illustrator 22.1.0, SVG Export Plug-In . SVG Version: 6.00 Build 0)  -->
<svg version="1.1" id="Layer_1" xmlns="http://www.w3.org/2000/svg" xmlns:xlink="http://www.w3.org/1999/xlink" x="0px" y="0px"
	 viewBox="0 0 256 256" style="enable-background:new 0 0 256 256;" xml:space="preserve">
<style type="text/css">
	.st0{fill:#231F20;}
	.st1{fill:#FFEFE4;}
	.st2{fill:#69EBFC;}
	.st3{fill:#5FD4E3;}
	.st4{fill:#A1F1FC;}
	.st5{fill:#D476E2;}
	.st6{fill:#B665C2;}
	.st7{fill:#EA82FA;}
	.st8{fill:#FFF7F2;}
	.st9{fill:#FF8354;}
	.st10{fill:#FFA172;}
	.st11{fill:#6770E6;}
	.st12{fill:#5861C7;}
	.st13{fill:#E0734A;}
	.st14{fill:#EDD4C2;}
	.st15{fill:#CC6944;}
	.st16{fill:#858EFF;}
	.st17{fill:#C76642;}
	.st18{fill:#FFFFFF;}
	.st19{fill:#FFDEC7;}
	.st20{fill:#4E56B0;}
	.st21{fill:#94529E;}
	.st22{fill:#41B6C5;}
	.st23{fill:#9847A4;}
	.st24{fill:#C2552C;}
	.st25{fill:#CFB6A4;}
</style>
<g>
	<path class="st2" d="M218,256H16c-8.837,0-16-7.163-16-16V16C0,7.163,7.163,0,16,0h202c8.837,0,16,7.163,16,16v224
		C234,248.837,226.837,256,218,256z"/>
	<path class="st3" d="M218,250H16c-8.837,0-16-7.164-16-16v6c0,8.836,7.163,16,16,16h202c8.837,0,16-7.164,16-16v-6
		C234,242.836,226.837,250,218,250z"/>
	<path class="st4" d="M218,0H16C7.163,0,0,7.164,0,16v6C0,13.164,7.163,6,16,6h202c8.837,0,16,7.164,16,16v-6
		C234,7.164,226.837,0,218,0z"/>
	<path class="st3" d="M50,256H16c-8.837,0-16-7.163-16-16V16C0,7.163,7.163,0,16,0h34V256z"/>
	<path class="st22" d="M16,250c-8.837,0-16-7.164-16-16v6c0,7.732,5.484,14.183,12.775,15.675C13.817,255.888,14.895,256,16,256h34
		v-6H16z"/>
	<path class="st2" d="M16,6h34V0H16c-1.105,0-2.183,0.112-3.225,0.325C5.484,1.817,0,8.268,0,16v6C0,13.164,7.163,6,16,6z"/>
	<path class="st9" d="M248,80h-14V30h14c4.418,0,8,3.582,8,8v34C256,76.418,252.418,80,248,80z"/>
	<path class="st5" d="M248,145.109h-14v-50h14c4.418,0,8,3.582,8,8v34C256,141.528,252.418,145.109,248,145.109z"/>
	<path class="st14" d="M248,210.131h-14v-50h14c4.418,0,8,3.582,8,8v34C256,206.549,252.418,210.131,248,210.131z"/>
	<circle class="st11" cx="142" cy="128" r="66"/>
	<path class="st1" d="M176.273,117.339c-0.202-2.812-2.542-4.989-5.361-4.989h-53.824c-2.819,0-5.159,2.178-5.361,4.989l-3,41.706
		v8.062c0,2.968,2.406,5.375,5.375,5.375h59.797c2.969,0,5.375-2.407,5.375-5.375v-8.062L176.273,117.339z"/>
	<path class="st1" d="M181.625,108.384h-9.406c-2.969,0-5.375-2.406-5.375-5.375v-1.344h-45.688v1.344
		c0,2.969-2.406,5.375-5.375,5.375h-9.406c-2.969,0-5.375-2.406-5.375-5.375v-5.375c0-8.349,6.768-15.117,15.117-15.117h55.766
		c8.349,0,15.117,6.768,15.117,15.117v5.375C187,105.978,184.594,108.384,181.625,108.384z"/>
	<path class="st1" d="M136.082,112.35h-8.398V96.225c0-0.742,0.602-1.344,1.344-1.344h5.711c0.742,0,1.344,0.602,1.344,1.344V112.35
		z"/>
	<path class="st1" d="M160.316,112.35h-8.398V96.225c0-0.742,0.602-1.344,1.344-1.344h5.711c0.742,0,1.344,0.602,1.344,1.344V112.35
		z"/>
	<circle class="st14" cx="144" cy="142" r="20"/>
</g>
</svg>
